# xmcd
#
# Track frame offsets:
#	150
#	15225
#	31850
#	47595
#	66381
#	77741
#	98683
#	116712
#	131491
#	151902
#	168110
#	185021
#
# Disc length: 2695 seconds
#
# Revision: 1
# Processed by: cddbd v1.5.2PL0 Copyright (c) Steve Scherf et al.
# Submitted via: EZCDAudioConverter 3.1.7.1
#
DISCID=8c0a850c
DTITLE=Paul Burch - Fool for Love
DYEAR=2003
DGENRE=Country
TTITLE0=Love Sick Blues Boy
TTITLE1=Bad Girl She Used to Be
TTITLE2=Life of a Fool
TTITLE3=Deserted Love
TTITLE4=If You're Gonna Love Me (C'est le Moment)
TTITLE5=Call My Name
TTITLE6=Time to Cry
TTITLE7=Sparks Fly Out
TTITLE8=Moments of Weaknesss
TTITLE9=Last Time I Fell
TTITLE10=Like Railroad Steel
TTITLE11=My Last Match (Sulphur)
EXTD=
EXTT0=
EXTT1=
EXTT2=
EXTT3=
EXTT4=
EXTT5=
EXTT6=
EXTT7=
EXTT8=
EXTT9=
EXTT10=
EXTT11=
PLAYORDER=
